<?xml version="1.0" encoding="iso-8859-1"?>
<!-- Generator: Adobe Illustrator 24.1.2, SVG Export Plug-In . SVG Version: 6.00 Build 0)  -->
<svg version="1.1" id="Layer_1" xmlns="http://www.w3.org/2000/svg" xmlns:xlink="http://www.w3.org/1999/xlink" x="20px" y="20px"
	 viewBox="0 0 64 64" style="enable-background:new 0 0 64 64;" xml:space="preserve">
<path d="M23.299,44.23l-3.229-1.545C20.406,45.119,22.473,47,25,47c2.761,0,5-2.239,5-5s-2.239-5-5-5
	c-1.246,0-2.37,0.472-3.246,1.226l3.436,1.205C26.267,39.769,27,40.768,27,41.897C27,43.799,25.015,45.051,23.299,44.23z"/>
<path d="M32,6C17.641,6,6,17.641,6,32c0,0.237,0.012,0.472,0.018,0.708l12.638,4.432C20.119,35.234,22.412,34,25,34
	c0.182,0,0.361,0.015,0.54,0.027l3.521-6.338C29.021,27.298,29,26.902,29,26.5C29,20.149,34.149,15,40.5,15S52,20.149,52,26.5
	C52,32.851,46.851,38,40.5,38c-0.629,0-1.241-0.064-1.842-0.161l-5.688,3.555C32.984,41.595,33,41.795,33,42c0,4.418-3.582,8-8,8
	s-8-3.582-8-8c0-0.258,0.015-0.512,0.039-0.764L6.327,36.113C8.299,48.517,19.041,58,32,58c14.359,0,26-11.641,26-26
	C58,17.641,46.359,6,32,6z"/>
<path d="M48,26.5c0-4.142-3.358-7.5-7.5-7.5S33,22.358,33,26.5s3.358,7.5,7.5,7.5S48,30.642,48,26.5z M37,26.5
	c0-1.933,1.567-3.5,3.5-3.5s3.5,1.567,3.5,3.5S42.433,30,40.5,30S37,28.433,37,26.5z"/>
</svg>